<?xml version="1.0" encoding="UTF-8"?>
<svg id="Layer_1" data-name="Layer 1" xmlns="http://www.w3.org/2000/svg" viewBox="0 0 98.05 76.12">
  <defs>
    <style>
      .cls-1 {
        fill: #fff;
      }

      .cls-2 {
        stroke-linejoin: round;
      }

      .cls-2, .cls-3 {
        stroke-linecap: round;
      }

      .cls-2, .cls-3, .cls-4 {
        fill: none;
        stroke: #2c2f6a;
      }

      .cls-5 {
        fill: #344598;
      }

      .cls-6 {
        fill: #485aa5;
      }

      .cls-3 {
        stroke-width: .75px;
      }

      .cls-3, .cls-4 {
        stroke-miterlimit: 10;
      }

      .cls-7 {
        fill: #2c2f6a;
      }
    </style>
  </defs>
  <path class="cls-6" d="M17.5,23.29C27.97,7.74,38.06.26,47.78.83c6.24.75,5.5,5.57,1.27,12.42l-31.55,10.04Z"/>
  <path class="cls-6" d="M1.52,50.31c.78-4.42,4.05-7.93,8.57-10.98,5.96-20.43,21.27-28.06,41.46-25.4,23.31,5.14,36.89,20.06,36.51,34.73-2.35,29.49-39.11,27.11-39.11,27.11,0,0-21.47.02-26.54-.89-11.3-2.03-25.92-10.45-20.89-24.57Z"/>
  <path class="cls-5" d="M86.03,37.92c2.24-1.64,4.34-2.77,6.19-3l.16,6.97,5.17,5.46-4.83,4.34,1.11,9.02c-2.99.31-5.85-.12-8.55-1.53,3.26-7.05,3.69-14.13.74-21.26Z"/>
  <path class="cls-4" d="M1.52,50.11c.78-4.42,4.05-7.93,8.57-10.98,5.96-20.43,21.27-28.06,41.46-25.4,23.31,5.14,36.89,20.06,36.51,34.73-2.35,29.49-39.11,27.11-39.11,27.11,0,0-21.47.02-26.54-.89-11.3-2.03-25.92-10.45-20.89-24.57Z"/>
  <path class="cls-6" d="M44.98,26.43C53.52,11.01,74.54-2.4,78.6,1.48c9.21,5.97-6.38,24.21-23.68,33.52l-9.94-8.57Z"/>
  <g>
    <path class="cls-2" d="M79.51,1.72c-8.11-6.24-35.67,19.61-34.49,24.71"/>
    <path class="cls-2" d="M54.92,35c10.73-3.58,33.9-25.46,24.32-33.52"/>
  </g>
  <g>
    <path class="cls-2" d="M16.95,25.24C23.22,11.11,41.43-2.46,49.71,1.06"/>
    <path class="cls-2" d="M49.46,13.22c4.05-5.98,4.81-10.36.25-12.15"/>
  </g>
  <path class="cls-2" d="M86.28,37.92c1.56-1.59,3.86-2.74,5.94-3"/>
  <line class="cls-2" x1="92.38" y1="41.89" x2="92.22" y2="34.92"/>
  <line class="cls-2" x1="97.55" y1="47.35" x2="92.38" y2="41.89"/>
  <line class="cls-2" x1="92.73" y1="52.14" x2="97.55" y2="47.35"/>
  <line class="cls-2" x1="93.84" y1="60.72" x2="92.73" y2="52.14"/>
  <path class="cls-2" d="M85.29,58.98c2.53,1.86,5.42,2.31,8.55,1.73"/>
  <ellipse class="cls-7" cx="15.77" cy="40.15" rx="4.44" ry="2.99" transform="translate(-26.54 48.51) rotate(-79.74)"/>
  <ellipse class="cls-7" cx="36.99" cy="40.89" rx="4.44" ry="2.99" transform="translate(-9.84 70) rotate(-79.74)"/>
  <path class="cls-3" d="M23.26,55.62c-.15,5.61,1.69,9,5.79,9.88"/>
  <path class="cls-3" d="M17.38,64.14c3.63-.02,5.46-3.04,5.88-8.4"/>
  <path class="cls-7" d="M21.16,51.91c1.66-.31,3.24-.34,4.68.27.09.04.17.1.22.18.5.83-.29,2.05-2.5,3.73-.17.13-.42.12-.58-.02-1.72-1.54-2.52-2.86-2.15-3.89.05-.14.19-.24.34-.27Z"/>
  <ellipse class="cls-1" cx="17.5" cy="38.44" rx=".52" ry=".65"/>
  <ellipse class="cls-1" cx="38.81" cy="39.1" rx=".52" ry=".66"/>
</svg>