<?xml version="1.0" encoding="UTF-8"?>
<svg id="Layer_1" data-name="Layer 1" xmlns="http://www.w3.org/2000/svg" viewBox="0 0 94.22 76.12">
  <defs>
    <style>
      .cls-1 {
        stroke: #eec34d;
        stroke-width: .5px;
      }

      .cls-1, .cls-2, .cls-3, .cls-4 {
        stroke-linecap: round;
      }

      .cls-1, .cls-2, .cls-4 {
        fill: none;
      }

      .cls-1, .cls-3, .cls-4 {
        stroke-linejoin: round;
      }

      .cls-5 {
        fill: #fff;
      }

      .cls-2 {
        stroke-width: .75px;
      }

      .cls-2, .cls-6 {
        stroke-miterlimit: 10;
      }

      .cls-2, .cls-6, .cls-4 {
        stroke: #6e1b1e;
      }

      .cls-6, .cls-7 {
        fill: #d7292f;
      }

      .cls-3 {
        fill: #78bb45;
        stroke: #5fad47;
      }

      .cls-8 {
        fill: #6e1b1e;
      }
    </style>
  </defs>
  <path class="cls-7" d="M47.53.5c-9.24-.98-26.19,13.88-29.56,22.64l31.49-9.55c5.03-7.29,5.16-12.06-1.93-13.09Z"/>
  <path class="cls-6" d="M1.52,50.11c.78-4.42,4.05-7.93,8.57-10.98,5.96-20.43,21.27-28.06,41.46-25.4,23.31,5.14,36.89,20.06,36.51,34.73-2.35,29.49-39.11,27.11-39.11,27.11,0,0-21.47.02-26.54-.89-11.3-2.03-25.92-10.45-20.89-24.57Z"/>
  <path class="cls-7" d="M52.97,15.01C64.19,4.5,72.9-.44,78.67,1.22c6.57,3.06.09,16.49-7.79,22.75-.08.06-17.91-8.95-17.91-8.95Z"/>
  <g>
    <path class="cls-4" d="M79.51,1.72c-8.11-6.24-35.67,19.61-34.49,24.71"/>
    <path class="cls-4" d="M54.92,35c10.73-3.58,33.9-25.46,24.32-33.52"/>
  </g>
  <g>
    <path class="cls-4" d="M16.95,25.24C23.22,11.11,41.43-2.46,49.71,1.06"/>
    <path class="cls-4" d="M49.46,13.22c4.05-5.98,4.81-10.36.25-12.15"/>
  </g>
  <ellipse class="cls-8" cx="15.77" cy="40.15" rx="4.44" ry="2.99" transform="translate(-26.54 48.51) rotate(-79.74)"/>
  <ellipse class="cls-8" cx="36.99" cy="40.89" rx="4.44" ry="2.99" transform="translate(-9.84 70) rotate(-79.74)"/>
  <path class="cls-2" d="M23.26,55.62c-.15,5.61,1.69,9,5.79,9.88"/>
  <path class="cls-2" d="M17.38,64.14c3.63-.02,5.46-3.04,5.88-8.4"/>
  <path class="cls-8" d="M21.16,51.91c1.66-.31,3.24-.34,4.68.27.09.04.17.1.22.18.5.83-.29,2.05-2.5,3.73-.17.13-.42.12-.58-.02-1.72-1.54-2.52-2.86-2.15-3.89.05-.14.19-.24.34-.27Z"/>
  <ellipse class="cls-5" cx="16.28" cy="38.93" rx=".52" ry=".65"/>
  <ellipse class="cls-5" cx="38.81" cy="39.1" rx=".52" ry=".66"/>
  <path class="cls-3" d="M90.1,42.31c4.86,2.79,4.79,10.14,0,12.38l-5.07-6.05,5.07-6.33Z"/>
  <path class="cls-3" d="M78.66,27.49c.43,3.34,1.46,6.1,3.11,8.26-1.84-.49-3.62-.76-5.14,0-.23,3.23,1.38,5.69,3.81,7.82-2.98.65-5.28,1.72-6.9,3.19,1.73,2.63,3.77,4.1,5.98,4.93-3,.53-4.74,2.63-5.69,5.69.41,1.81,7.46,1.45,7.38,1.1-.25-.58-3.57,8.61-2.3,8.59,15.89-.26,14.94-37.07-.24-39.57Z"/>
  <path class="cls-1" d="M46.78,5.93c-1.72.07-2.4.63-1.8,1.78"/>
  <path class="cls-1" d="M34.27,12.63c-.93-1.2-.28-1.88,1.46-2.19"/>
  <path class="cls-1" d="M71.58,8.12c-2.43,1.15-2.45,1.86-.1,2.16"/>
  <path class="cls-1" d="M25.81,26.9c-1.09-.89-.29-1.67,1.95-1.67"/>
  <path class="cls-1" d="M39.53,22c-1.03-1.43.19-1.77,2.29-1.67"/>
  <path class="cls-1" d="M57.72,16.42c-.73,1.17-.32,1.71,1.24,1.62"/>
  <path class="cls-1" d="M68.21,20.9c-2.23.25-1.94-.61-.35-2.05"/>
  <path class="cls-1" d="M51.34,28.71c-1.05,1.03-.7,1.71,1.05,2.05"/>
  <path class="cls-1" d="M71.1,30.76c-1.53.24-1.82.76-.86,1.57"/>
  <path class="cls-1" d="M61.81,44.14c-1.59.08-1.9.54-.95,1.38"/>
  <path class="cls-1" d="M59.91,55c-1.01.99-.1,1.38.95,1.71"/>
  <path class="cls-1" d="M69,64.14c-2.68.67-2.14,2.19-.52,2.28"/>
  <path class="cls-1" d="M27.1,42.81c-1.54.28-1.58.96-.14,2.02"/>
  <path class="cls-1" d="M8.96,53.93c-2.05.78-1.78,1.42.81,1.92"/>
  <path class="cls-1" d="M23.86,69c-1.4.11-1.71.51-.95,1.19"/>
  <path class="cls-1" d="M40.03,71.33c-1.22.27-1.63.89-1.22,1.86"/>
  <path class="cls-1" d="M56.58,72.52c-.7.47-1.13,1.04-.33,2.1"/>
  <path class="cls-1" d="M49.15,59.94c-1.91.62-1.73,2.09-.19,2.48"/>
  <path class="cls-1" d="M35.86,59.38c-1.51.41-2.26.92-.76,1.71"/>
  <path class="cls-1" d="M47.05,46.14c-1.78.66-1.54,1.86,1.31,1.67"/>
</svg>